<svg width="45" height="45" viewBox="0 0 45 45" fill="none" xmlns="http://www.w3.org/2000/svg">
<path d="M22.5 44.3831C10.4962 44.3831 0.616844 34.5038 0.616844 22.5C0.616844 10.4962 10.4962 0.616821 22.5 0.616821C34.5038 0.616821 44.3832 10.4962 44.3832 22.5C44.3832 26.6205 43.2186 30.6571 41.0275 34.146" stroke="#041C32" stroke-width="1.23369" stroke-miterlimit="10"/>
<path d="M39.2041 33.1714L39.9123 35.8979C39.9221 35.9349 39.9616 35.9571 39.9986 35.9497L42.7251 35.2415C42.7868 35.2267 42.7966 35.1453 42.7424 35.1132L39.3078 33.0949C39.2535 33.0628 39.1869 33.1122 39.2041 33.1739V33.1714Z" fill="#041C32"/>
<path d="M10.7306 11.012H7.43667V31.8687H10.7306V11.012Z" fill="#041C32"/>
<path d="M17.4962 15.3816H14.2022V31.8686H17.4962V15.3816Z" fill="#041C32"/>
<path d="M37.7879 20.0277H34.4939V31.8662H37.7879V20.0277Z" fill="#041C32"/>
<path d="M31.0248 8.19666H27.7308V31.8662H31.0248V8.19666Z" fill="#041C32"/>
<path d="M24.2592 5.76624H20.9653V31.8686H24.2592V5.76624Z" fill="#041C32"/>
</svg>
