<svg width="84" height="84" viewBox="0 0 84 84" fill="none" xmlns="http://www.w3.org/2000/svg">
<path d="M41.9999 82.8485C19.5929 82.8485 1.15137 64.407 1.15137 41.9999C1.15137 19.5929 19.5929 1.15137 41.9999 1.15137C64.407 1.15137 82.8485 19.5929 82.8485 41.9999C82.8485 49.6916 80.6746 57.2266 76.5846 63.7391" stroke="#041C32" stroke-width="2.30288" stroke-miterlimit="10"/>
<path d="M73.181 61.92L74.5028 67.0094C74.5213 67.0785 74.5949 67.1199 74.664 67.1061L79.7534 65.7843C79.8686 65.7566 79.887 65.6046 79.7856 65.5448L73.3744 61.7772C73.2731 61.7174 73.1487 61.8095 73.181 61.9246V61.92Z" fill="#041C32"/>
<path d="M20.0305 20.5557H13.8818V59.4882H20.0305V20.5557Z" fill="#041C32"/>
<path d="M32.6594 28.7123H26.5107V59.488H32.6594V28.7123Z" fill="#041C32"/>
<path d="M70.5374 37.385H64.3887V59.4835H70.5374V37.385Z" fill="#041C32"/>
<path d="M57.9129 15.3004H51.7642V59.4835H57.9129V15.3004Z" fill="#041C32"/>
<path d="M45.284 10.7637H39.1353V59.4881H45.284V10.7637Z" fill="#041C32"/>
</svg>
